<svg xmlns="http://www.w3.org/2000/svg" viewBox="0 0 24 24" fill="currentColor">
  <path d="M6 13c-.55 0-1 .45-1 1s.45 1 1 1 1-.45 1-1-.45-1-1-1zm0 4c-.55 0-1 .45-1 1s.45 1 1 1 1-.45 1-1-.45-1-1-1zm0-8c-.55 0-1 .45-1 1s.45 1 1 1 1-.45 1-1-.45-1-1-1zm-3 .5c-.28 0-.5.22-.5.5s.22.5.5.5.5-.22.5-.5-.22-.5-.5-.5zM6 5c-.55 0-1 .45-1 1s.45 1 1 1 1-.45 1-1-.45-1-1-1zm15 5.5c.28 0 .5-.22.5-.5s-.22-.5-.5-.5-.5.22-.5.5.22.5.5.5zM14 9c.55 0 1-.45 1-1s-.45-1-1-1-1 .45-1 1 .45 1 1 1zm0-4c-.55 0-1 .45-1 1s.45 1 1 1 1-.45 1-1-.45-1-1-1zM3 13.5c-.28 0-.5.22-.5.5s.22.5.5.5.5-.22.5-.5-.22-.5-.5-.5zm10 .5c-.55 0-1 .45-1 1s.45 1 1 1 1-.45 1-1-.45-1-1-1zm0 4c-.55 0-1 .45-1 1s.45 1 1 1 1-.45 1-1-.45-1-1-1zm3-4c-.55 0-1 .45-1 1s.45 1 1 1 1-.45 1-1-.45-1-1-1zm0 4c-.55 0-1 .45-1 1s.45 1 1 1 1-.45 1-1-.45-1-1-1zM3 9.5c-.28 0-.5.22-.5.5s.22.5.5.5.5-.22.5-.5-.22-.5-.5-.5zm7 9c-.55 0-1 .45-1 1s.45 1 1 1 1-.45 1-1-.45-1-1-1zm8-4c-.55 0-1 .45-1 1s.45 1 1 1 1-.45 1-1-.45-1-1-1zm0 4c-.55 0-1 .45-1 1s.45 1 1 1 1-.45 1-1-.45-1-1-1zm0-8c-.55 0-1 .45-1 1s.45 1 1 1 1-.45 1-1-.45-1-1-1zm0-4c-.55 0-1 .45-1 1s.45 1 1 1 1-.45 1-1-.45-1-1-1zm3 8.5c-.28 0-.5.22-.5.5s.22.5.5.5.5-.22.5-.5-.22-.5-.5-.5zM14 17c-.55 0-1 .45-1 1s.45 1 1 1 1-.45 1-1-.45-1-1-1zm0 4c-.55 0-1 .45-1 1s.45 1 1 1 1-.45 1-1-.45-1-1-1zM10 9c.55 0 1-.45 1-1s-.45-1-1-1-1 .45-1 1 .45 1 1 1zm0 4c-.55 0-1 .45-1 1s.45 1 1 1 1-.45 1-1-.45-1-1-1zm0-4c.55 0 1-.45 1-1s-.45-1-1-1-1 .45-1 1 .45 1 1 1z"/>
</svg>
