<svg xmlns="http://www.w3.org/2000/svg" viewBox="0 0 24 24" fill="currentColor">
  <path d="M9 11.24V7.5C9 6.12 10.12 5 11.5 5S14 6.12 14 7.5v3.74c1.21-.81 2-2.18 2-3.74C16 5.01 13.99 3 11.5 3S7 5.01 7 7.5c0 1.56.79 2.93 2 3.74zm9.84 4.63l-4.54-2.26c-.17-.07-.35-.11-.54-.11H13v-6c0-.83-.67-1.5-1.5-1.5S10 6.67 10 7.5v10.74c-3.6-.76-3.54-.75-3.67-.75-.31 0-.59.13-.79.35l-.79.8 4.94 2.61c.16.09.32.13.49.13h8.43c.58 0 1.08-.41 1.19-.98l.81-4.07c.08-.4-.03-.81-.3-1.11-.27-.31-.66-.48-1.07-.48z"/>
</svg>
